<?xml version="1.0" encoding="UTF-8" standalone="no"?>
<svg
   xmlns:dc="http://purl.org/dc/elements/1.1/"
   xmlns:cc="http://creativecommons.org/ns#"
   xmlns:rdf="http://www.w3.org/1999/02/22-rdf-syntax-ns#"
   xmlns:svg="http://www.w3.org/2000/svg"
   xmlns="http://www.w3.org/2000/svg"
   xmlns:sodipodi="http://sodipodi.sourceforge.net/DTD/sodipodi-0.dtd"
   xmlns:inkscape="http://www.inkscape.org/namespaces/inkscape"
   viewBox="0 0 54.52 84.19"
   id="svg2"
   version="1.1"
   inkscape:version="0.48.5 r10040"
   width="100%"
   height="100%"
   sodipodi:docname="1source-marker.svg">
  <metadata
     id="metadata43">
    <rdf:RDF>
      <cc:Work
         rdf:about="">
        <dc:format>image/svg+xml</dc:format>
        <dc:type
           rdf:resource="http://purl.org/dc/dcmitype/StillImage" />
      </cc:Work>
    </rdf:RDF>
  </metadata>
  <sodipodi:namedview
     pagecolor="#ffffff"
     bordercolor="#666666"
     borderopacity="1"
     objecttolerance="10"
     gridtolerance="10"
     guidetolerance="10"
     inkscape:pageopacity="0"
     inkscape:pageshadow="2"
     inkscape:window-width="640"
     inkscape:window-height="480"
     id="namedview41"
     showgrid="false"
     fit-margin-top="0"
     fit-margin-left="0"
     fit-margin-right="0"
     fit-margin-bottom="0"
     inkscape:zoom="2.5719268"
     inkscape:cx="28.688573"
     inkscape:cy="45.879999"
     inkscape:window-x="0"
     inkscape:window-y="0"
     inkscape:window-maximized="0"
     inkscape:current-layer="svg2" />
  <defs
     id="defs4">
    <clipPath
       id="0">
      <path
         d="M 0,73.41 H 45.903 V 0 H 0 v 73.41"
         id="path7"
         inkscape:connector-curvature="0" />
    </clipPath>
  </defs>
  <g
     transform="matrix(0.75205832,0,0,-0.75205832,10.109152,84.19)"
     id="g9">
    <g
       clip-path="url(#0)"
       id="g11">
      <path
         d="m 23.01,0.703 c -1.648,8.091 -4.554,14.824 -8.07,21.06 -2.611,4.629 -5.635,8.902 -8.434,13.391 -0.934,1.498 -1.741,3.081 -2.638,4.636 -1.795,3.11 -3.25,6.715 -3.158,11.391 0.091,4.57 1.412,8.235 3.318,11.232 3.134,4.929 8.384,8.971 15.429,10.03 5.76,0.868 11.159,-0.599 14.988,-2.838 3.13,-1.83 5.553,-4.274 7.396,-7.155 1.923,-3.01 3.246,-6.559 3.357,-11.191 0.057,-2.374 -0.332,-4.572 -0.879,-6.396 C 43.764,43.018 42.873,41.475 42.08,39.823 40.532,36.606 38.592,33.659 36.644,30.71 30.844,21.926 25.398,12.967 23.014,0.69"
         id="path13"
         inkscape:connector-curvature="0"
         style="fill:#e86433" />
      <path
         d="m 23.01,0.703 c -1.648,8.091 -4.554,14.824 -8.07,21.06 -2.611,4.629 -5.635,8.902 -8.434,13.391 -0.934,1.498 -1.741,3.081 -2.638,4.636 -1.795,3.11 -3.25,6.715 -3.158,11.391 0.091,4.57 1.412,8.235 3.318,11.232 3.134,4.929 8.384,8.971 15.429,10.03 5.76,0.868 11.159,-0.599 14.988,-2.838 3.13,-1.83 5.553,-4.274 7.396,-7.155 1.923,-3.01 3.246,-6.559 3.357,-11.191 0.057,-2.374 -0.332,-4.572 -0.879,-6.396 C 43.764,43.018 42.873,41.475 42.08,39.823 40.532,36.606 38.592,33.659 36.644,30.71 30.844,21.926 25.398,12.967 23.014,0.69 z"
         stroke-miterlimit="10"
         id="path15"
         inkscape:connector-curvature="0"
         style="fill:none;stroke:#c7532b;stroke-width:1.40600002;stroke-linejoin:round;stroke-miterlimit:10" />
      <path
         d="M 0,0 -2.275,-1.313 -2.918,-0.198 1,6.588 7.303,-4.328 3.7,-6.409 0,0 z"
         transform="translate(23.15,42.09)"
         id="path17"
         inkscape:connector-curvature="0"
         style="fill:#ffffff" />
      <path
         d="m 0,0 -0.406,-0.703 -3.647,-6.317 -0.135,-0.234 0.135,-0.235 0.458,-0.795 0.234,-0.406 0.406,0.234 1.87,1.08 3.465,-6 0.234,-0.407 0.407,0.236 3.196,1.846 0.405,0.235 -0.233,0.405 L 0.406,-0.7 0,0.003 m 0,-0.937 5.982,-10.361 -3.196,-1.847 -3.7,6.409 -2.275,-1.313 -0.458,0.795 L 0,-0.934"
         transform="translate(24.15,49.15)"
         id="path19"
         inkscape:connector-curvature="0"
         style="fill:#c7532b" />
      <path
         d="M 0,0 3.604,2.08 7.303,-4.328 9.578,-3.015 10.22,-4.128 6.303,-10.914 0,0"
         transform="translate(15.453,62.801)"
         id="path21"
         inkscape:connector-curvature="0"
         style="fill:#ffffff" />
      <path
         d="m 0,0 -0.406,-0.234 -3.198,-1.846 -0.405,-0.234 0.234,-0.406 5.983,-10.36 0.405,-0.702 0.406,0.702 3.648,6.317 0.134,0.235 L 6.667,-6.294 6.208,-5.5 5.974,-5.095 5.568,-5.329 3.699,-6.408 0.234,-0.408 0,-0.002 m -0.171,-0.64 3.699,-6.408 2.274,1.313 0.458,-0.793 -3.647,-6.317 -5.982,10.359 3.198,1.846"
         transform="translate(19.14,65.2)"
         id="path23"
         inkscape:connector-curvature="0"
         style="fill:#c7532b" />
      <path
         d="M 0,0 -3.918,6.785 H 8.686 V 2.625 H 1.287 V 0 H 0.001"
         transform="translate(28.855,43.733)"
         id="path25"
         inkscape:connector-curvature="0"
         style="fill:#ffffff" />
      <path
         d="m 0,0 h -0.469 -11.963 -0.811 l 0.405,-0.703 3.648,-6.317 0.135,-0.234 h 0.271 0.916 0.469 v 0.469 l 0.001,2.156 H -0.469 0 V -4.16 -0.469 0 M -0.469,-0.469 V -4.16 h -7.398 l -0.001,-2.625 h -0.916 l -3.648,6.316 h 11.963"
         transform="translate(37.775,50.752)"
         id="path27"
         inkscape:connector-curvature="0"
         style="fill:#c7532b" />
      <path
         d="M 0,0 V 4.161 H 7.4 V 6.787 H 8.686 L 12.603,0 H 0"
         transform="translate(8.362,50.05)"
         id="path29"
         inkscape:connector-curvature="0"
         style="fill:#ffffff" />
      <path
         d="M 0,0 H -0.271 -1.187 -1.655 V -0.469 -2.625 H -8.587 -9.056 V -3.094 -6.787 -7.255 H -8.587 3.376 4.187 L 3.782,-6.552 0.135,-0.234 0,0 M -0.271,-0.469 3.376,-6.787 H -8.587 v 3.693 h 7.4 v 2.625 h 0.916"
         transform="translate(17.18,57.07)"
         id="path31"
         inkscape:connector-curvature="0"
         style="fill:#c7532b" />
      <path
         d="M 0,0 6.303,10.914 9.904,8.835 6.205,2.426 8.48,1.114 7.836,0 0,0 z"
         transform="translate(23.741,52.12)"
         id="path33"
         inkscape:connector-curvature="0"
         style="fill:#ffffff" />
      <path
         d="m 0,0 -0.234,-0.406 -5.983,-10.359 -0.405,-0.703 h 0.811 7.295 0.271 l 0.135,0.234 0.459,0.793 0.235,0.406 -0.406,0.235 -1.869,1.078 3.464,6 0.234,0.406 L 3.602,-2.082 0.406,-0.237 0,-0.003 m 0.172,-0.64 3.195,-1.844 -3.699,-6.41 2.275,-1.312 -0.459,-0.794 h -7.295 l 5.983,10.36"
         transform="translate(29.958,63.36)"
         id="path35"
         inkscape:connector-curvature="0"
         style="fill:#c7532b" />
      <path
         d="M 0,0 3.698,6.408 1.425,7.722 2.067,8.836 H 9.904 L 3.602,-2.08 0,0"
         transform="translate(12.258,39.612)"
         id="path37"
         inkscape:connector-curvature="0"
         style="fill:#ffffff" />
      <path
         d="m 0,0 h -0.812 -7.295 -0.27 l -0.136,-0.234 -0.458,-0.794 -0.234,-0.406 0.406,-0.234 1.867,-1.08 -3.464,-6 -0.234,-0.406 0.406,-0.235 3.196,-1.845 0.405,-0.235 0.235,0.407 5.982,10.361 L 0,0.002 m -0.812,-0.469 -5.982,-10.361 -3.196,1.846 3.698,6.408 -2.273,1.313 0.458,0.794 h 7.295"
         transform="translate(22.567,48.683)"
         id="path39"
         inkscape:connector-curvature="0"
         style="fill:#c7532b" />
    </g>
  </g>
</svg>
