<svg xmlns="http://www.w3.org/2000/svg" viewBox="0 0 31.799999 31.7"><path d="m28.6 1h-25.4c-1.2 0-2.2 1-2.2 2.1v25.5c0 1.2 1 2.1 2.2 2.1h25.4c1.2 0 2.2-1 2.2-2.1v-25.5c0-1.2-1-2.1-2.2-2.1m-18.6 24.9h-4.5v-13.4h4.5v13.4m-2.2-15.3c-1.5 0-2.5-1-2.5-2.3 0-1.3 1-2.3 2.5-2.3 1.5 0 2.5 1 2.5 2.3 0 1.3-.9 2.3-2.5 2.3m18.5 15.3h-4.5v-7.2c0-1.8-.7-3-2.3-3-1.2 0-2 .8-2.3 1.6-.1.3-.1.7-.1 1.1v7.5h-4.5c0 0 .1-12.2 0-13.5h4.5v1.9c.6-.9 1.7-2.2 4.1-2.2 3 0 5.2 1.9 5.2 6.1v7.7zm-9.3-11.5c0 0 0 0 0 0" fill="#a99e99"/></svg>