<?xml version="1.0" encoding="UTF-8" standalone="no"?>
<!-- Created with Inkscape (http://www.inkscape.org/) -->

<svg
   xmlns:dc="http://purl.org/dc/elements/1.1/"
   xmlns:cc="http://creativecommons.org/ns#"
   xmlns:rdf="http://www.w3.org/1999/02/22-rdf-syntax-ns#"
   xmlns:svg="http://www.w3.org/2000/svg"
   xmlns="http://www.w3.org/2000/svg"
   version="1.1"
   width="100%"
   height="100%"
   viewBox="0 0 31.799999 31.7"
   id="Isolation_Mode"
   xml:space="preserve"><metadata
     id="metadata8"><rdf:RDF><cc:Work
         rdf:about=""><dc:format>image/svg+xml</dc:format><dc:type
           rdf:resource="http://purl.org/dc/dcmitype/StillImage" /><dc:title></dc:title></cc:Work></rdf:RDF></metadata><defs
     id="defs6" /><path
     d="M 28.6,0.99999926 H 3.2 C 2,0.99999926 1,1.9999993 1,3.0999993 V 28.6 c 0,1.2 1,2.1 2.2,2.1 l 25.4,0 c 1.2,0 2.2,-1 2.2,-2.1 V 3.0999993 c 0,-1.2 -1,-2.10000004 -2.2,-2.10000004 z M 10,25.9 H 5.5 V 12.5 H 10 v 13.4 z m -2.2,-15.300001 0,0 c -1.5,0 -2.5,-0.9999997 -2.5,-2.2999997 0,-1.3 1,-2.3 2.5,-2.3 1.5,0 2.5,1 2.5,2.3 0,1.3 -0.9,2.2999997 -2.5,2.2999997 z M 26.3,25.9 h -4.5 v -7.2 c 0,-1.8 -0.7,-3 -2.3,-3 -1.2,0 -2,0.8 -2.3,1.6 -0.1,0.3 -0.1,0.7 -0.1,1.1 v 7.5 h -4.5 c 0,0 0.1,-12.2 0,-13.5 h 4.5 v 1.9 c 0.6,-0.9 1.7,-2.2 4.1,-2.2 3,0 5.2,1.9 5.2,6.1 v 7.7 z M 17,14.4 c 0,0 0,0 0,0 l 0,0 0,0 z"
     id="LinkedIn__x28_alt_x29__3_"
     style="fill:#a99e99" /></svg>