<?xml version="1.0" encoding="utf-8"?>
<!-- Generator: Adobe Illustrator 18.0.0, SVG Export Plug-In . SVG Version: 6.00 Build 0)  -->
<!DOCTYPE svg PUBLIC "-//W3C//DTD SVG 1.1//EN" "http://www.w3.org/Graphics/SVG/1.1/DTD/svg11.dtd">
<svg version="1.1" id="Layer_1" xmlns="http://www.w3.org/2000/svg" xmlns:xlink="http://www.w3.org/1999/xlink" x="0px" y="0px"
	 viewBox="0 0 485.8 196.5" enable-background="new 0 0 485.8 196.5" xml:space="preserve">
<g>
	<g>
		<polygon fill="#FFFFFF" points="103.2,106.3 89,130.8 90.8,133.8 99.6,128.8 114,153.6 126.3,146.4 		"/>
		<polygon fill="#FFFFFF" points="93.9,90.2 108,65.8 106.2,62.7 97.4,67.8 83.1,42.9 70.7,50.1 		"/>
		<polygon fill="#FFFFFF" points="107.8,98.3 121.9,122.7 125.5,122.7 125.5,112.6 154.1,112.6 154.1,98.3 		"/>
		<polygon fill="#FFFFFF" points="89.3,98.3 75.1,73.8 71.6,73.8 71.6,84 42.9,84 42.9,98.3 		"/>
		<polygon fill="#FFFFFF" points="103.2,90.2 131.4,90.2 133.2,87.2 124.4,82.1 138.7,57.2 126.3,50.1 		"/>
		<polygon fill="#FFFFFF" points="65.6,106.3 63.8,109.4 72.7,114.4 58.3,139.3 70.7,146.4 93.9,106.3 		"/>
	</g>
	<g>
		<path fill="#FFFFFF" d="M209,118.8c0,0.9-0.2,1.1-1.1,1.1h-24c-0.9,0-1.1-0.2-1.1-1.1v-5.1c0-0.9,0.2-1.1,1.1-1.1h7.9V79.4
			l-5.9,3.6c-0.4,0.2-0.7,0.5-1.1,0.5c-0.5,0-0.8-0.5-1.1-1l-2-3.5c-0.2-0.3-0.3-0.7-0.3-1c0-0.5,0.4-0.9,0.9-1.2l12.4-9.1h5.5
			c1.4,0,1.6,0.3,1.6,1.6v43.4h6.2c0.9,0,1.1,0.2,1.1,1.1V118.8z"/>
		<path fill="#FFFFFF" d="M241.4,74.4c-0.9-0.3-2.7-1-5.2-1c-3.6,0-7.4,1.4-7.4,6.1c0,6,9.2,7,16,12.1c4,3,6.7,7.1,6.7,13.1
			c0,9.9-7,16.5-16.9,16.5c-5.9,0-16.1-1.9-16.1-5.3V104c0-1,0.2-1.3,1.3-1.3h5.8c1.1,0,1.3,0.2,1.3,1.3v7.1c1.2,0.4,4,1.6,7.4,1.6
			c4.4,0,7-2.4,7-7.2c0-7-8-7.7-16-12.5c-4.1-2.5-6.8-5.6-6.8-12.1c0-11.3,8.1-16,17.2-16c5.5,0,14,2,14,5.2v10.6
			c0,1.1-0.3,1.3-1.3,1.3h-5.8c-1.1,0-1.3-0.2-1.3-1.3V74.4z"/>
		<path fill="#FFFFFF" d="M272.3,121.2c-10.6,0-17-8.1-17-20.7c0-12.6,6.4-20.7,17-20.7c10.5,0,17,8.1,17,20.7
			C289.3,113.1,282.9,121.2,272.3,121.2z M278.7,100.5c0-7.3-1-12.8-6.4-12.8c-5.4,0-6.4,5.6-6.4,12.8c0,7.3,0.9,12.8,6.4,12.8
			C277.8,113.3,278.7,107.9,278.7,100.5z"/>
		<path fill="#FFFFFF" d="M332.6,118.8c0,0.9-0.2,1.1-1.1,1.1h-10.4c-1.9,0-2-2-2.5-3.7c-2.3,2-4.4,5-12,5
			c-8.3,0-10.2-5.6-10.2-12.4V88.5h-4c-0.9,0-1.1-0.2-1.1-1.1v-5.1c0-0.9,0.2-1.1,1.1-1.1h12.8c0.9,0,1.1,0.2,1.1,1.1v24.1
			c0,3,0.4,7,4.4,7c3.3,0,5.7-2.3,6.7-3.2V88.5h-4c-0.9,0-1.1-0.2-1.1-1.1v-5.1c0-0.9,0.2-1.1,1.1-1.1h12.8c0.9,0,1.1,0.2,1.1,1.1
			v23.6c0,3.9,0.3,5,0.8,6.7h3.3c0.9,0,1.1,0.3,1.1,1.1V118.8z"/>
		<path fill="#FFFFFF" d="M356.8,118.8c0,0.9-0.2,1.1-1.1,1.1h-18.2c-0.9,0-1.1-0.2-1.1-1.1v-5.1c0-0.9,0.2-1.1,1.1-1.1h4V95.1
			c0-3.9-0.4-5-0.8-6.7H337c-0.9,0-1.1-0.2-1.1-1.1v-5.1c0-0.9,0.2-1.1,1.1-1.1h10.2c2,0,2.4,2.9,2.9,4.9c1.5-1.8,4.4-6.2,9.7-6.2
			c2.3,0,4.5,0.8,4.5,1.8c0,0.3-0.1,0.6-0.2,0.8l-2.4,6.6c-0.1,0.2-0.3,0.7-0.6,0.7c-0.5,0-1.9-0.9-3.7-0.9c-2.4,0-4.9,2.7-5.9,3.8
			v20h4.2c0.9,0,1.1,0.2,1.1,1.1V118.8z"/>
		<path fill="#FFFFFF" d="M392.4,117.2c0.1,0.2,0.2,0.5,0.2,0.8c0,1.6-6.3,3.2-11,3.2c-10.9,0-17.4-6.7-17.4-19.9
			c0-13.3,6.6-21.4,18.5-21.4c3.8,0,9.6,1.2,9.6,3.4v10.6c0,0.9-0.2,1.1-1.1,1.1h-5.6c-0.9,0-1.1-0.2-1.1-1.1V88
			c-0.6-0.2-1.3-0.3-1.9-0.3c-5.5,0-7.8,4.1-7.8,13.1c0,8.6,2,12.6,8.1,12.6c3.9,0,6.1-1.7,6.9-1.7c0.2,0,0.4,0.2,0.5,0.4
			L392.4,117.2z"/>
		<path fill="#FFFFFF" d="M405.8,103.2c0,4.4,1.3,9.8,8.6,9.8c5.6,0,8.9-2.6,9.9-2.6c0.4,0,0.7,0.3,0.9,0.6l2,4.7
			c0.1,0.2,0.2,0.5,0.2,0.9c0,2-7.8,4.6-14,4.6c-10.3,0-17.5-5.9-17.5-20.3c0-12.4,6.7-21.1,17.1-21.1c13.3,0,15.7,11.9,15.7,21.4
			c0,1.5-0.3,2-1.8,2H405.8z M418,95.9c0-3.2-0.2-8.8-5.6-8.8c-6.1,0-6.4,6.6-6.7,8.8H418z"/>
	</g>
</g>
</svg>
