<svg xmlns="http://www.w3.org/2000/svg" viewBox="0 0 485.8 196.5" enable-background="new 0 0 485.8 196.5"><g fill="#e86433"><path d="m103.2 106.3l-14.2 24.5 1.8 3 8.8-5 14.4 24.8 12.3-7.2z"/><path d="m93.9 90.2l14.1-24.4-1.8-3.1-8.8 5.1-14.3-24.9-12.4 7.2z"/><path d="m107.8 98.3l14.1 24.4h3.6v-10.1h28.6v-14.3z"/><path d="m89.3 98.3l-14.2-24.5h-3.5v10.2h-28.7v14.3z"/><path d="m103.2 90.2h28.2l1.8-3-8.8-5.1 14.3-24.9-12.4-7.1z"/><path d="m65.6 106.3l-1.8 3.1 8.9 5-14.4 24.9 12.4 7.1 23.2-40.1z"/></g><g fill="#fff"><path d="m209 118.8c0 .9-.2 1.1-1.1 1.1h-24c-.9 0-1.1-.2-1.1-1.1v-5.1c0-.9.2-1.1 1.1-1.1h7.9v-33.2l-5.9 3.6c-.4.2-.7.5-1.1.5-.5 0-.8-.5-1.1-1l-2-3.5c-.2-.3-.3-.7-.3-1 0-.5.4-.9.9-1.2l12.4-9.1h5.5c1.4 0 1.6.3 1.6 1.6v43.4h6.2c.9 0 1.1.2 1.1 1.1v5z"/><path d="m241.4 74.4c-.9-.3-2.7-1-5.2-1-3.6 0-7.4 1.4-7.4 6.1 0 6 9.2 7 16 12.1 4 3 6.7 7.1 6.7 13.1 0 9.9-7 16.5-16.9 16.5-5.9 0-16.1-1.9-16.1-5.3v-11.9c0-1 .2-1.3 1.3-1.3h5.8c1.1 0 1.3.2 1.3 1.3v7.1c1.2.4 4 1.6 7.4 1.6 4.4 0 7-2.4 7-7.2 0-7-8-7.7-16-12.5-4.1-2.5-6.8-5.6-6.8-12.1 0-11.3 8.1-16 17.2-16 5.5 0 14 2 14 5.2v10.6c0 1.1-.3 1.3-1.3 1.3h-5.8c-1.1 0-1.3-.2-1.3-1.3v-6.3z"/><path d="m272.3 121.2c-10.6 0-17-8.1-17-20.7 0-12.6 6.4-20.7 17-20.7 10.5 0 17 8.1 17 20.7 0 12.6-6.4 20.7-17 20.7m6.4-20.7c0-7.3-1-12.8-6.4-12.8-5.4 0-6.4 5.6-6.4 12.8 0 7.3.9 12.8 6.4 12.8 5.5 0 6.4-5.4 6.4-12.8"/><path d="m332.6 118.8c0 .9-.2 1.1-1.1 1.1h-10.4c-1.9 0-2-2-2.5-3.7-2.3 2-4.4 5-12 5-8.3 0-10.2-5.6-10.2-12.4v-20.3h-4c-.9 0-1.1-.2-1.1-1.1v-5.1c0-.9.2-1.1 1.1-1.1h12.8c.9 0 1.1.2 1.1 1.1v24.1c0 3 .4 7 4.4 7 3.3 0 5.7-2.3 6.7-3.2v-21.7h-4c-.9 0-1.1-.2-1.1-1.1v-5.1c0-.9.2-1.1 1.1-1.1h12.8c.9 0 1.1.2 1.1 1.1v23.6c0 3.9.3 5 .8 6.7h3.3c.9 0 1.1.3 1.1 1.1v5.1z"/><path d="m356.8 118.8c0 .9-.2 1.1-1.1 1.1h-18.2c-.9 0-1.1-.2-1.1-1.1v-5.1c0-.9.2-1.1 1.1-1.1h4v-17.5c0-3.9-.4-5-.8-6.7h-3.7c-.9 0-1.1-.2-1.1-1.1v-5.1c0-.9.2-1.1 1.1-1.1h10.2c2 0 2.4 2.9 2.9 4.9 1.5-1.8 4.4-6.2 9.7-6.2 2.3 0 4.5.8 4.5 1.8 0 .3-.1.6-.2.8l-2.4 6.6c-.1.2-.3.7-.6.7-.5 0-1.9-.9-3.7-.9-2.4 0-4.9 2.7-5.9 3.8v20h4.2c.9 0 1.1.2 1.1 1.1v5.1"/><path d="m392.4 117.2c.1.2.2.5.2.8 0 1.6-6.3 3.2-11 3.2-10.9 0-17.4-6.7-17.4-19.9 0-13.3 6.6-21.4 18.5-21.4 3.8 0 9.6 1.2 9.6 3.4v10.6c0 .9-.2 1.1-1.1 1.1h-5.6c-.9 0-1.1-.2-1.1-1.1v-5.9c-.6-.2-1.3-.3-1.9-.3-5.5 0-7.8 4.1-7.8 13.1 0 8.6 2 12.6 8.1 12.6 3.9 0 6.1-1.7 6.9-1.7.2 0 .4.2.5.4l2.1 5.1"/><path d="m405.8 103.2c0 4.4 1.3 9.8 8.6 9.8 5.6 0 8.9-2.6 9.9-2.6.4 0 .7.3.9.6l2 4.7c.1.2.2.5.2.9 0 2-7.8 4.6-14 4.6-10.3 0-17.5-5.9-17.5-20.3 0-12.4 6.7-21.1 17.1-21.1 13.3 0 15.7 11.9 15.7 21.4 0 1.5-.3 2-1.8 2h-21.1m12.2-7.3c0-3.2-.2-8.8-5.6-8.8-6.1 0-6.4 6.6-6.7 8.8h12.3"/></g></svg>